<?xml version="1.0" encoding="us-ascii" standalone="no"?><svg xmlns="http://www.w3.org/2000/svg" xmlns:xlink="http://www.w3.org/1999/xlink" contentStyleType="text/css" height="553px" preserveAspectRatio="none" style="width:771px;height:553px;background:#FFFFFF;" version="1.1" viewBox="0 0 771 553" width="771px" zoomAndPan="magnify"><defs/><g><!--cluster 6ebb7423072c5943f52c11274fd71b0b--><g id="cluster_6ebb7423072c5943f52c11274fd71b0b"><polygon fill="none" points="16,16,26,6,342,6,342,163.48,332,173.48,16,173.48,16,16" style="stroke:#181818;stroke-width:1.0;"/><line style="stroke:#181818;stroke-width:1.0;" x1="332" x2="342" y1="16" y2="6"/><line style="stroke:#181818;stroke-width:1.0;" x1="16" x2="332" y1="16" y2="16"/><line style="stroke:#181818;stroke-width:1.0;" x1="332" x2="332" y1="16" y2="173.48"/><text fill="#000000" font-family="sans-serif" font-size="14" font-weight="bold" lengthAdjust="spacing" textLength="83" x="133.5" y="31.9951">Dynamodb</text></g><!--cluster ba39a5f0aa547715c4df694144393752--><g id="cluster_ba39a5f0aa547715c4df694144393752"><polygon fill="none" points="366,16,376,6,754,6,754,163.48,744,173.48,366,173.48,366,16" style="stroke:#181818;stroke-width:1.0;"/><line style="stroke:#181818;stroke-width:1.0;" x1="744" x2="754" y1="16" y2="6"/><line style="stroke:#181818;stroke-width:1.0;" x1="366" x2="744" y1="16" y2="16"/><line style="stroke:#181818;stroke-width:1.0;" x1="744" x2="744" y1="16" y2="173.48"/><text fill="#000000" font-family="sans-serif" font-size="14" font-weight="bold" lengthAdjust="spacing" textLength="92" x="510" y="31.9951">Apigateway</text></g><!--cluster 04a7da3c5b04cad85da1eebb92315b8b--><g id="cluster_04a7da3c5b04cad85da1eebb92315b8b"><polygon fill="none" points="298,207.48,308,197.48,622,197.48,622,526.45,612,536.45,298,536.45,298,207.48" style="stroke:#181818;stroke-width:1.0;"/><line style="stroke:#181818;stroke-width:1.0;" x1="612" x2="622" y1="207.48" y2="197.48"/><line style="stroke:#181818;stroke-width:1.0;" x1="298" x2="612" y1="207.48" y2="207.48"/><line style="stroke:#181818;stroke-width:1.0;" x1="612" x2="612" y1="207.48" y2="536.45"/><text fill="#000000" font-family="sans-serif" font-size="14" font-weight="bold" lengthAdjust="spacing" textLength="61" x="425.5" y="223.4751">Lambda</text></g><!--entity fa6ee91000110726ac4398162abc8c48--><g id="elem_fa6ee91000110726ac4398162abc8c48"><rect fill="#F1F1F1" height="111.4844" rx="2.5" ry="2.5" style="stroke:#181818;stroke-width:0.5;" width="294" x="32" y="46"/><rect fill="#F1F1F1" height="10" style="stroke:#181818;stroke-width:0.5;" width="15" x="306" y="51"/><rect fill="#F1F1F1" height="2" style="stroke:#181818;stroke-width:0.5;" width="4" x="304" y="53"/><rect fill="#F1F1F1" height="2" style="stroke:#181818;stroke-width:0.5;" width="4" x="304" y="57"/><text fill="#000000" font-family="sans-serif" font-size="14" font-weight="bold" lengthAdjust="spacing" textLength="234" x="47" y="78.9951">dynamodb_UrlShortenerTable</text><text fill="#000000" font-family="sans-serif" font-size="14" lengthAdjust="spacing" textLength="4" x="47" y="95.292">&#160;</text><text fill="#000000" font-family="sans-serif" font-size="14" lengthAdjust="spacing" textLength="173" x="47" y="111.5889">terraform name: url_table</text><text fill="#000000" font-family="sans-serif" font-size="14" lengthAdjust="spacing" textLength="254" x="47" y="127.8857">terraform type: aws_dynamodb_table</text><text fill="#000000" font-family="sans-serif" font-size="14" lengthAdjust="spacing" textLength="4" x="47" y="144.1826">&#160;</text></g><!--entity a91d2f3ec34bf47237898e5f5b2e4aa0--><g id="elem_a91d2f3ec34bf47237898e5f5b2e4aa0"><rect fill="#F1F1F1" height="111.4844" rx="2.5" ry="2.5" style="stroke:#181818;stroke-width:0.5;" width="355" x="382.5" y="46"/><rect fill="#F1F1F1" height="10" style="stroke:#181818;stroke-width:0.5;" width="15" x="717.5" y="51"/><rect fill="#F1F1F1" height="2" style="stroke:#181818;stroke-width:0.5;" width="4" x="715.5" y="53"/><rect fill="#F1F1F1" height="2" style="stroke:#181818;stroke-width:0.5;" width="4" x="715.5" y="57"/><text fill="#000000" font-family="sans-serif" font-size="14" font-weight="bold" lengthAdjust="spacing" textLength="315" x="397.5" y="78.9951">apigateway_${local.api_gateway_name}</text><text fill="#000000" font-family="sans-serif" font-size="14" lengthAdjust="spacing" textLength="4" x="397.5" y="95.292">&#160;</text><text fill="#000000" font-family="sans-serif" font-size="14" lengthAdjust="spacing" textLength="135" x="397.5" y="111.5889">terraform name: api</text><text fill="#000000" font-family="sans-serif" font-size="14" lengthAdjust="spacing" textLength="285" x="397.5" y="127.8857">terraform type: aws_api_gateway_rest_api</text><text fill="#000000" font-family="sans-serif" font-size="14" lengthAdjust="spacing" textLength="4" x="397.5" y="144.1826">&#160;</text></g><!--entity 923e4cb37ca501a1722b6ac4567159ff--><g id="elem_923e4cb37ca501a1722b6ac4567159ff"><rect fill="#F1F1F1" height="111.4844" rx="2.5" ry="2.5" style="stroke:#181818;stroke-width:0.5;" width="293" x="313.5" y="237.48"/><rect fill="#F1F1F1" height="10" style="stroke:#181818;stroke-width:0.5;" width="15" x="586.5" y="242.48"/><rect fill="#F1F1F1" height="2" style="stroke:#181818;stroke-width:0.5;" width="4" x="584.5" y="244.48"/><rect fill="#F1F1F1" height="2" style="stroke:#181818;stroke-width:0.5;" width="4" x="584.5" y="248.48"/><text fill="#000000" font-family="sans-serif" font-size="14" font-weight="bold" lengthAdjust="spacing" textLength="148" x="328.5" y="270.4751">lambda_ShortenUrl</text><text fill="#000000" font-family="sans-serif" font-size="14" lengthAdjust="spacing" textLength="4" x="328.5" y="286.772">&#160;</text><text fill="#000000" font-family="sans-serif" font-size="14" lengthAdjust="spacing" textLength="169" x="328.5" y="303.0689">terraform name: shorten</text><text fill="#000000" font-family="sans-serif" font-size="14" lengthAdjust="spacing" textLength="253" x="328.5" y="319.3657">terraform type: aws_lambda_function</text><text fill="#000000" font-family="sans-serif" font-size="14" lengthAdjust="spacing" textLength="4" x="328.5" y="335.6626">&#160;</text></g><!--entity c3cf15b03e3d0f72cfd3d8981390114a--><g id="elem_c3cf15b03e3d0f72cfd3d8981390114a"><rect fill="#F1F1F1" height="111.4844" rx="2.5" ry="2.5" style="stroke:#181818;stroke-width:0.5;" width="293" x="313.5" y="408.97"/><rect fill="#F1F1F1" height="10" style="stroke:#181818;stroke-width:0.5;" width="15" x="586.5" y="413.97"/><rect fill="#F1F1F1" height="2" style="stroke:#181818;stroke-width:0.5;" width="4" x="584.5" y="415.97"/><rect fill="#F1F1F1" height="2" style="stroke:#181818;stroke-width:0.5;" width="4" x="584.5" y="419.97"/><text fill="#000000" font-family="sans-serif" font-size="14" font-weight="bold" lengthAdjust="spacing" textLength="151" x="328.5" y="441.9651">lambda_RedirectUrl</text><text fill="#000000" font-family="sans-serif" font-size="14" lengthAdjust="spacing" textLength="4" x="328.5" y="458.262">&#160;</text><text fill="#000000" font-family="sans-serif" font-size="14" lengthAdjust="spacing" textLength="168" x="328.5" y="474.5589">terraform name: redirect</text><text fill="#000000" font-family="sans-serif" font-size="14" lengthAdjust="spacing" textLength="253" x="328.5" y="490.8557">terraform type: aws_lambda_function</text><text fill="#000000" font-family="sans-serif" font-size="14" lengthAdjust="spacing" textLength="4" x="328.5" y="507.1526">&#160;</text></g><!--link a91d2f3ec34bf47237898e5f5b2e4aa0 to 923e4cb37ca501a1722b6ac4567159ff--><g id="link_a91d2f3ec34bf47237898e5f5b2e4aa0_923e4cb37ca501a1722b6ac4567159ff"><path codeLine="36" d="M530.94,157.8 C517.79,182.71 502.29,212.1 489.13,237.02 " fill="none" id="a91d2f3ec34bf47237898e5f5b2e4aa0-923e4cb37ca501a1722b6ac4567159ff" style="stroke:#181818;stroke-width:1.0;"/></g><!--link a91d2f3ec34bf47237898e5f5b2e4aa0 to c3cf15b03e3d0f72cfd3d8981390114a--><g id="link_a91d2f3ec34bf47237898e5f5b2e4aa0_c3cf15b03e3d0f72cfd3d8981390114a"><path codeLine="37" d="M608.31,157.69 C614.75,167.69 620.37,178.46 624,189.48 C646.15,256.81 656.74,286.1 624,348.97 C611.64,372.7 591.88,392.53 570.29,408.67 " fill="none" id="a91d2f3ec34bf47237898e5f5b2e4aa0-c3cf15b03e3d0f72cfd3d8981390114a" style="stroke:#181818;stroke-width:1.0;"/></g><!--link 923e4cb37ca501a1722b6ac4567159ff to c3cf15b03e3d0f72cfd3d8981390114a--><g id="link_923e4cb37ca501a1722b6ac4567159ff_c3cf15b03e3d0f72cfd3d8981390114a"><path codeLine="38" d="M460,349.25 C460,368.29 460,389.62 460,408.67 " fill="none" id="923e4cb37ca501a1722b6ac4567159ff-c3cf15b03e3d0f72cfd3d8981390114a" style="stroke:#181818;stroke-width:1.0;"/></g><!--SRC=[ZP9BQzmm58Nt-XKYT3MGegTbPHVeigkcNPLWhgIhr61RWqPXCeJvxvKT9vsMAJFR-pWwtps2OKZxiN_ffoSofO3qvijXWZ45TqDXHnjqpYWXcH5UMoMZ5fvpOLGCXZlcw2kXFetRDE5KQ8G6qNB66ETrem6lf6rv8y3vrgkM_YIRJLZrknzvUFYLSi49ytTm0susX1JC6MBA8wrJU4UVyz2LkNdIAOTjxS1-rtrelOsGHt9SAUwt_HCKtCDXuN0WBUZ80BGoXcklGcoiugeQb4QBlpd0yY2YH2-LYye8QLhReexQ2LG0RE60ZnUwJwz3yZ1yhgNklJRRFvuZgaDdMKwNC-xAN3Wb-WgZ2x3GC0KcWFJQCUKXj3e0nvgK5P9hr_wJIgsYyauQ3vfnu4O8DqUZcte86-D2CopgtHf8ZUQSzTrRzwpzLI0-JxxqQPgT_x7WfO_L6PCe0ulrByKWGxqfbxP-5GMd5hvXw3FwyXyFUMrVQ-98BgPv6sul7kawbKkSv68MrwZy1W00]--></g></svg>